<svg width="19" height="8" viewBox="0 0 19 8" fill="none" xmlns="http://www.w3.org/2000/svg">
<mask id="mask0_86_2" style="mask-type:luminance" maskUnits="userSpaceOnUse" x="0" y="0" width="19" height="8">
<path d="M0.818604 0.18L0.818604 7.75H18.7486V0.18H0.818604Z" fill="white"/>
</mask>
<g mask="url(#mask0_86_2)">
<mask id="mask1_86_2" style="mask-type:luminance" maskUnits="userSpaceOnUse" x="0" y="0" width="19" height="8">
<path d="M0.818604 0.18L0.818604 7.75H18.7486V0.18H0.818604Z" fill="white"/>
</mask>
<g mask="url(#mask1_86_2)">
<path d="M7.10872 6.99021C6.35618 7.19795 5.59134 7.35827 4.81872 7.47021C3.98277 7.62023 3.12239 7.55484 2.31872 7.28021C2.01871 7.17287 1.74354 7.00589 1.50981 6.78935C1.27607 6.5728 1.08861 6.31116 0.958717 6.02021C0.578717 5.08021 1.04872 4.12021 1.53872 3.11021L1.64872 2.89021L1.81872 2.50021C2.26872 1.50021 2.73872 0.500206 3.81872 0.250206C4.39385 0.119242 4.99636 0.186187 5.52872 0.440206C6.65565 1.09882 7.55019 2.0912 8.08872 3.28021C8.45878 3.92787 8.79262 4.59556 9.08872 5.28021L9.45872 6.17021L8.45872 6.51021C8.45872 6.51021 7.91872 6.75021 7.10872 6.99021ZM4.36872 2.06021C4.06495 2.4165 3.82478 2.82243 3.65872 3.26021L3.46872 3.66021L3.35872 3.90021C3.10872 4.40021 2.73872 5.15021 2.81872 5.36021C2.81872 5.36021 2.89872 5.47021 3.13872 5.57021C4.29014 5.7252 5.46203 5.59117 6.54872 5.18021C6.63872 5.18021 6.73872 5.13021 6.81872 5.11021C6.14872 3.75021 5.25872 2.38021 4.69872 2.15021C4.59638 2.09706 4.48387 2.06637 4.36872 2.06021Z" fill="#FFC55E"/>
<path d="M11.1586 6.74999L11.0086 6.68999L10.0686 6.32999L10.4586 5.45999C10.4586 5.45999 10.9086 4.45999 11.5286 3.45999C12.1028 2.28459 13.0244 1.31409 14.1686 0.67999C14.7427 0.412914 15.3967 0.373602 15.9986 0.569991C16.9686 0.859991 17.3786 1.74999 17.8186 2.74999L17.9886 3.13999L18.0986 3.36999C18.5686 4.36999 19.0086 5.36999 18.6086 6.28999C18.4684 6.57647 18.2724 6.83199 18.0319 7.04152C17.7915 7.25105 17.5116 7.41033 17.2086 7.50999C16.0562 7.82418 14.8376 7.79988 13.6986 7.43999C12.8391 7.26015 11.991 7.02975 11.1586 6.74999ZM15.2786 2.28999C15.1635 2.29616 15.0509 2.32684 14.9486 2.37999C14.3886 2.59999 13.4586 3.91999 12.7386 5.28999C13.9127 5.72765 15.1729 5.88516 16.4186 5.74999C16.6586 5.65999 16.7286 5.57999 16.7386 5.55999C16.8286 5.34999 16.4786 4.55999 16.2486 4.07999L16.1486 3.83999L15.9586 3.42999C15.8097 2.98461 15.5791 2.57089 15.2786 2.20999" fill="#FFC55E"/>
<path d="M8.35864 6.87009C8.36124 6.97253 8.38399 7.07346 8.4256 7.1671C8.46722 7.26075 8.52687 7.34528 8.60117 7.41585C8.67546 7.48643 8.76294 7.54168 8.85859 7.57844C8.95424 7.6152 9.0562 7.63275 9.15864 7.63009H10.1586C10.3648 7.63557 10.565 7.56019 10.7164 7.42004C10.8677 7.2799 10.9583 7.08611 10.9686 6.88009V4.41009C10.966 4.30765 10.9433 4.20672 10.9017 4.11308C10.8601 4.01944 10.8004 3.93491 10.7261 3.86433C10.6518 3.79375 10.5644 3.7385 10.4687 3.70174C10.373 3.66498 10.2711 3.64743 10.1686 3.65009H9.16864C9.06619 3.64608 8.96396 3.6623 8.86778 3.69783C8.77161 3.73336 8.68338 3.7875 8.60815 3.85716C8.53292 3.92682 8.47216 4.01063 8.42935 4.10379C8.38653 4.19695 8.36251 4.29764 8.35864 4.40009V6.87009Z" fill="#FFC55E"/>
<g style="mix-blend-mode:multiply">
<mask id="mask2_86_2" style="mask-type:luminance" maskUnits="userSpaceOnUse" x="9" y="3" width="3" height="5">
<path d="M9.9187 3.65014V7.64014H11.0087V3.65014H9.9187Z" fill="white"/>
</mask>
<g mask="url(#mask2_86_2)">
<path d="M10.2187 3.66031H9.9187C10.0301 3.67248 10.1333 3.72492 10.2088 3.80778C10.2843 3.89065 10.3269 3.99823 10.3287 4.11031V6.85031C10.3295 6.91254 10.3154 6.97407 10.2876 7.02974C10.2597 7.08541 10.219 7.13361 10.1687 7.17031L10.1087 7.42031V7.54031C10.1087 7.54031 10.1087 7.68031 10.1087 7.60031H10.2587C10.4649 7.60579 10.6651 7.5304 10.8164 7.39026C10.9678 7.25011 11.0583 7.05632 11.0687 6.85031V4.38031C11.0661 4.27787 11.0434 4.17694 11.0017 4.0833C10.9601 3.98965 10.9005 3.90513 10.8262 3.83455C10.7519 3.76397 10.6644 3.70872 10.5688 3.67196C10.4731 3.6352 10.3711 3.61765 10.2687 3.62031" fill="#FFC55E"/>
</g>
</g>
<g style="mix-blend-mode:multiply">
<mask id="mask3_86_2" style="mask-type:luminance" maskUnits="userSpaceOnUse" x="1" y="0" width="18" height="8">
<path d="M1.10864 0.85L1.10864 7.75H18.7586V0.85H1.10864Z" fill="white"/>
</mask>
<g mask="url(#mask3_86_2)">
<path d="M18.0886 3.39001L17.9786 3.16001L17.8186 2.75001C17.5668 2.02969 17.1488 1.37879 16.5986 0.850015C16.5986 0.850015 17.5986 1.98001 18.2486 5.37001C18.4386 6.47001 16.5586 6.43001 16.5586 6.43001L1.10864 6.32001C1.39415 6.77461 1.81841 7.12524 2.31864 7.32001C3.12576 7.58129 3.98608 7.63291 4.81864 7.47001C5.59127 7.35808 6.3561 7.19776 7.10864 6.99001C7.67864 6.84001 8.10864 6.69001 8.35864 6.61001V6.87001C8.36124 6.97246 8.38399 7.07338 8.4256 7.16703C8.46722 7.26067 8.52687 7.3452 8.60117 7.41578C8.67546 7.48636 8.76293 7.5416 8.85859 7.57836C8.95424 7.61512 9.0562 7.63267 9.15864 7.63001H10.1586C10.3648 7.6355 10.565 7.56011 10.7164 7.41996C10.8677 7.27982 10.9583 7.08603 10.9686 6.88001V6.65001L11.1586 6.75001C11.9836 7.04524 12.825 7.29232 13.6786 7.49001C14.8211 7.84961 16.0428 7.8739 17.1986 7.56001C17.5016 7.46035 17.7815 7.30107 18.022 7.09154C18.2624 6.88202 18.4585 6.62649 18.5986 6.34001C18.9986 5.40001 18.5486 4.44001 18.0886 3.42001" fill="#FFC55E"/>
</g>
</g>
</g>
</g>
</svg>
