<svg id="圖層_1" data-name="圖層 1" xmlns="http://www.w3.org/2000/svg" xmlns:xlink="http://www.w3.org/1999/xlink" viewBox="0 0 61.03 83.09"><defs><style>.cls-1{fill:none;}.cls-2{clip-path:url(#clip-path);}.cls-3{fill:#ff422e;}.cls-4{fill:#ff664d;}.cls-5{fill:#fff;}.cls-6{fill:#231815;}.cls-7{fill:#fffcde;}</style><clipPath id="clip-path" transform="translate(0 0)"><rect class="cls-1" width="61.03" height="83.09"/></clipPath></defs><g class="cls-2"><path class="cls-3" d="M21.57,25,29.19,1a1.11,1.11,0,0,1,2.2,0L39.46,25Z" transform="translate(0 0)"/><path class="cls-4" d="M61,52.58A30.52,30.52,0,1,1,30.52,22.06,30.51,30.51,0,0,1,61,52.58" transform="translate(0 0)"/><path class="cls-5" d="M18.89,48.75c0,.72-.12,1.76-.72,1.61-.4-.11-.49-.45-.57-.71a2.83,2.83,0,0,0-.87-1.25,4.09,4.09,0,0,0-2.4-1c-2.57-.06-3.16,3-.86,3.75a10.75,10.75,0,0,1,3.7,1.53c2.1,1.48,1.59,5-1.32,5.94a5.19,5.19,0,0,1-3.76-.26,1.47,1.47,0,0,0-.85.09c-1,.22-1.14-.78-1.12-1.58s.13-1.78.74-1.62c.38.1.48.45.57.71a2.59,2.59,0,0,0,.67,1.19,3.32,3.32,0,0,0,3,.24c1.19-.53,1.85-3.16-1.36-4-2.15-.55-4.29-1.16-4.27-3.56,0-2.75,2.28-3.77,4.61-3.59a9.88,9.88,0,0,1,2.72.86,1.61,1.61,0,0,0,1,.09c1-.25,1.14.76,1.1,1.57" transform="translate(0 0)"/><path class="cls-6" d="M13.58,46.21a4,4,0,0,1,.49,0,9.55,9.55,0,0,1,2.72.86,1.36,1.36,0,0,0,.61.13,2.58,2.58,0,0,0,.39,0,1,1,0,0,1,.29,0c.75,0,.84.88.81,1.61s-.1,1.62-.61,1.62h-.11c-.4-.11-.49-.45-.57-.71a2.83,2.83,0,0,0-.87-1.25,4.09,4.09,0,0,0-2.4-1h-.08c-2.51,0-3.06,3-.78,3.75a10.82,10.82,0,0,1,3.69,1.52,3.4,3.4,0,0,1-1.31,6,5.16,5.16,0,0,1-3.77-.26.59.59,0,0,0-.23,0,2.55,2.55,0,0,0-.61.13l-.27,0c-.77,0-.87-.89-.85-1.61s.12-1.64.62-1.64l.12,0c.38.1.48.45.57.71a2.59,2.59,0,0,0,.67,1.19,3.29,3.29,0,0,0,1.77.49,2.9,2.9,0,0,0,1.22-.25c1.19-.53,1.85-3.16-1.36-4-2.15-.55-4.29-1.16-4.27-3.56s2-3.61,4.12-3.61m0-.5c-2.82,0-4.59,1.57-4.62,4.1,0,2.85,2.56,3.52,4.64,4,1.2.31,1.9.92,2,1.71a1.4,1.4,0,0,1-.68,1.35,2.58,2.58,0,0,1-1,.2,2.85,2.85,0,0,1-1.49-.4,2.25,2.25,0,0,1-.47-.91v-.05a1.35,1.35,0,0,0-.91-1,.77.77,0,0,0-.25,0c-1.08,0-1.11,1.61-1.12,2.13a2.41,2.41,0,0,0,.47,1.76A1.18,1.18,0,0,0,11,59a1.81,1.81,0,0,0,.38-.05l.14,0a1.39,1.39,0,0,1,.36-.08,6.17,6.17,0,0,0,2.44.54,6,6,0,0,0,1.7-.26,4.09,4.09,0,0,0,2.91-3.27,3.59,3.59,0,0,0-1.45-3.56,11.09,11.09,0,0,0-3.84-1.59,1.34,1.34,0,0,1-1.06-1.51,1.57,1.57,0,0,1,1.7-1.27h.07a3.61,3.61,0,0,1,2.09.9,2.29,2.29,0,0,1,.71,1l0,0a1.31,1.31,0,0,0,.9,1l.24,0c1.06,0,1.1-1.59,1.11-2.11A2.35,2.35,0,0,0,19,47a1.17,1.17,0,0,0-.87-.36,2,2,0,0,0-.41,0,1.18,1.18,0,0,1-.27,0,1,1,0,0,1-.4-.08,9.92,9.92,0,0,0-2.89-.91,4.78,4.78,0,0,0-.53,0" transform="translate(0 0)"/><path class="cls-5" d="M26.68,51.91c0,.3-.22.61-.76.62l-.46,0c-.47,0-.92,0-1.35,0-.07,1.69-.23,4.4.34,5a2.58,2.58,0,0,0,.87.48.47.47,0,0,1,.15.59c-.1.26-.39.34-.74.34s-1.92.11-2.59-1-.45-2.32-.45-5.31l-1.13,0c-.51,0-.74-.28-.76-.62s.25-.66.8-.69a2,2,0,0,0,1.57-.75,3.42,3.42,0,0,0,.47-1.85.79.79,0,0,1,.74-.83.82.82,0,0,1,.81.8c0,1.11-.05,2.54-.05,2.54l1.63,0a.81.81,0,0,1,.91.71" transform="translate(0 0)"/><path class="cls-6" d="M23.38,47.88a.82.82,0,0,1,.81.8c0,1.11-.05,2.54-.05,2.54l1.63,0a.81.81,0,0,1,.91.71c0,.3-.22.61-.76.62l-.47,0H24.11c-.07,1.69-.23,4.4.34,5a2.58,2.58,0,0,0,.87.48.47.47,0,0,1,.15.59c-.1.26-.39.34-.74.34h-.24a2.65,2.65,0,0,1-2.35-1c-.61-1-.45-2.32-.45-5.31l-1.13,0c-.51,0-.74-.28-.76-.62s.25-.66.8-.69a2,2,0,0,0,1.57-.75,3.42,3.42,0,0,0,.47-1.85.79.79,0,0,1,.74-.83m0-.5a1.27,1.27,0,0,0-1.24,1.33,3,3,0,0,1-.38,1.57,1.55,1.55,0,0,1-1.18.53A1.22,1.22,0,0,0,19.3,52a1.15,1.15,0,0,0,1.26,1.1h.63c0,.36,0,.69,0,1,0,2,0,3.1.53,4.06a2.93,2.93,0,0,0,2.78,1.29h.24a1.15,1.15,0,0,0,1.21-.66,1,1,0,0,0-.35-1.19,2.05,2.05,0,0,0-.35-.16.87.87,0,0,1-.43-.26c-.37-.38-.27-2.88-.22-4.11h.88L26,53a1.3,1.3,0,0,0,.95-.4,1,1,0,0,0,.27-.75,1.31,1.31,0,0,0-1.41-1.18H24.66c0-.52,0-1.34,0-2a1.32,1.32,0,0,0-1.31-1.3" transform="translate(0 0)"/><path class="cls-5" d="M35.37,57.65c-.07.31-.34.41-.69.43a3.35,3.35,0,0,1-.92-.1,3,3,0,0,1-.74-.42,4.68,4.68,0,0,1-2.75.94A2.66,2.66,0,0,1,28,57.37a2.3,2.3,0,0,1-.31-1.9,3,3,0,0,1,3.22-2,3.28,3.28,0,0,1,1.12.17h0c0-.3.19-2.72-1-2.72-.64,0-.78.64-1.07,1.23-.42.88-1.52,1.31-2.11.48-.29-.41-.26-1.22.74-1.84A4.4,4.4,0,0,1,31,50.13c1.57-.05,2.93.49,3,2.3.05.88.05,1.76.07,2.37.05,1.29.24,1.93.86,2.23.3.12.52.32.47.62m-4.73-.55a2.19,2.19,0,0,0,1.84-.47,6.32,6.32,0,0,1-.36-1.8,1.6,1.6,0,0,0-.95-.29,1.34,1.34,0,0,0-1.45,1,1.25,1.25,0,0,0,.92,1.58" transform="translate(0 0)"/><path class="cls-6" d="M31.15,50.13c1.49,0,2.74.56,2.82,2.3.05.88.05,1.76.07,2.37.05,1.29.24,1.93.86,2.23.3.12.52.32.47.62s-.34.41-.69.43a3.35,3.35,0,0,1-.92-.1,3,3,0,0,1-.74-.42,4.68,4.68,0,0,1-2.75.94A2.66,2.66,0,0,1,28,57.37a2.3,2.3,0,0,1-.31-1.9,3,3,0,0,1,3.12-2h.1a3.28,3.28,0,0,1,1.12.17h0c0-.3.19-2.72-1-2.72h0c-.61,0-.75.65-1,1.23a1.54,1.54,0,0,1-1.3.93,1,1,0,0,1-.81-.45c-.29-.41-.26-1.22.74-1.84A4.4,4.4,0,0,1,31,50.13h.2m-.07,7a2.49,2.49,0,0,0,1.41-.52,6,6,0,0,1-.37-1.8,1.6,1.6,0,0,0-.95-.29h-.05a1.34,1.34,0,0,0-1.4,1,1.25,1.25,0,0,0,.92,1.58,2.12,2.12,0,0,0,.44,0m.07-7.52h-.22a5,5,0,0,0-2.56.75,2.21,2.21,0,0,0-1.11,1.42,1.49,1.49,0,0,0,1.28,1.79,2.84,2.84,0,0,0-1.34,1.76,2.76,2.76,0,0,0,.38,2.3A3.13,3.13,0,0,0,30.27,59,5.08,5.08,0,0,0,33,58.17a2.78,2.78,0,0,0,.59.28,3.7,3.7,0,0,0,1.07.13c.88,0,1.11-.53,1.18-.82a1.09,1.09,0,0,0-.76-1.2c-.32-.14-.51-.48-.56-1.78,0-.18,0-.38,0-.6,0-.51,0-1.15-.06-1.78-.08-1.79-1.26-2.77-3.32-2.77M30,53.07a2.35,2.35,0,0,0,.5-.69l.16-.34c.21-.49.29-.6.43-.6a.21.21,0,0,1,.18.07A2.6,2.6,0,0,1,31.54,53a4.14,4.14,0,0,0-.64,0h-.1a4.64,4.64,0,0,0-.85.07m1.13,3.58a1.17,1.17,0,0,1-.32,0,.82.82,0,0,1-.49-.34.77.77,0,0,1-.06-.62.86.86,0,0,1,.91-.61,1.63,1.63,0,0,1,.52.09,7.06,7.06,0,0,0,.24,1.29,1.64,1.64,0,0,1-.8.23" transform="translate(0 0)"/><path class="cls-5" d="M43.4,52.55a1.44,1.44,0,0,1-1.66.45c-.5-.14-.76-.54-1.29-.61-.75-.12-1.07.51-1.35,1,0,.07,0,2.53,0,3a3.41,3.41,0,0,0,.17.7c.33.5.38,1.12-.23,1.33a3.69,3.69,0,0,1-2,0,.65.65,0,0,1-.35-1A2.2,2.2,0,0,0,37,56.28c.09-1.12.07-2.76,0-3.51a1.17,1.17,0,0,0-.26-.79.91.91,0,0,1-.35-.62.55.55,0,0,1,.21-.47,6.44,6.44,0,0,1,1.78-.66.62.62,0,0,1,.76.71s0,.78,0,1.45a4.28,4.28,0,0,1,.36-.37,4.09,4.09,0,0,1,2.61-1.3,1.4,1.4,0,0,1,1.31.5,1.16,1.16,0,0,1-.05,1.33" transform="translate(0 0)"/><path class="cls-6" d="M38.63,50.21a.63.63,0,0,1,.59.73s0,.78,0,1.46a3.36,3.36,0,0,1,.36-.38,4.09,4.09,0,0,1,2.61-1.3h.11a1.31,1.31,0,0,1,1.2.5,1.16,1.16,0,0,1-.05,1.33,1.24,1.24,0,0,1-1.09.53,2.37,2.37,0,0,1-.57-.08c-.5-.14-.76-.54-1.29-.6a.62.62,0,0,0-.18,0c-.62,0-.92.56-1.17,1,0,.07,0,2.53,0,3a3.41,3.41,0,0,0,.17.7c.33.5.38,1.12-.23,1.33a3.63,3.63,0,0,1-1,.12,2.88,2.88,0,0,1-1-.14.65.65,0,0,1-.35-1A2.2,2.2,0,0,0,37,56.28c.09-1.12.07-2.76,0-3.51a1.17,1.17,0,0,0-.26-.79.91.91,0,0,1-.35-.62.56.56,0,0,1,.21-.47,6.44,6.44,0,0,1,1.78-.66l.17,0m0-.5a1.55,1.55,0,0,0-.29,0,6.77,6.77,0,0,0-2,.75,1.07,1.07,0,0,0-.4.86,1.38,1.38,0,0,0,.51,1,.75.75,0,0,1,.1.42,34.25,34.25,0,0,1,0,3.47v.12a1.5,1.5,0,0,1-.22.78,1.12,1.12,0,0,0-.14,1,1.21,1.21,0,0,0,.72.75,3.42,3.42,0,0,0,1.18.18,3.84,3.84,0,0,0,1.14-.15,1.17,1.17,0,0,0,.76-.71,1.62,1.62,0,0,0-.26-1.37s-.05-.25-.08-.38l0-.14c0-.06,0-.56,0-2.74.25-.47.41-.68.67-.68h.1a1.11,1.11,0,0,1,.52.24,2.42,2.42,0,0,0,.72.35,2.52,2.52,0,0,0,.7.1,1.73,1.73,0,0,0,1.5-.75A1.66,1.66,0,0,0,43.87,51a1.77,1.77,0,0,0-1.62-.73h-.12a4.23,4.23,0,0,0-2.41,1v-.25a1.18,1.18,0,0,0-.31-.89,1,1,0,0,0-.78-.34" transform="translate(0 0)"/><path class="cls-5" d="M51.57,51.91c0,.3-.22.61-.76.62l-.47,0c-.46,0-.91,0-1.34,0-.07,1.69-.23,4.4.34,5a2.58,2.58,0,0,0,.87.48.47.47,0,0,1,.15.59c-.1.26-.4.34-.74.34s-1.92.11-2.59-1-.45-2.32-.45-5.31l-1.13,0c-.51,0-.74-.28-.76-.62s.25-.66.8-.69a2,2,0,0,0,1.57-.75,3.42,3.42,0,0,0,.47-1.85.79.79,0,0,1,.74-.83.82.82,0,0,1,.81.8c0,1.11,0,2.54,0,2.54l1.63,0a.81.81,0,0,1,.91.71" transform="translate(0 0)"/><path class="cls-6" d="M48.27,47.88a.82.82,0,0,1,.81.8c0,1.11,0,2.54,0,2.54l1.63,0a.81.81,0,0,1,.91.71c0,.3-.22.61-.76.62l-.47,0H49c-.07,1.69-.23,4.4.34,5,.36.36.64.34.87.48a.47.47,0,0,1,.15.59c-.1.26-.4.34-.74.34h-.24a2.65,2.65,0,0,1-2.35-1c-.61-1-.45-2.32-.45-5.31l-1.13,0c-.51,0-.74-.28-.76-.62s.25-.66.8-.69a2,2,0,0,0,1.57-.75,3.42,3.42,0,0,0,.47-1.85.79.79,0,0,1,.74-.83m0-.5A1.27,1.27,0,0,0,47,48.71a3,3,0,0,1-.38,1.57,1.56,1.56,0,0,1-1.19.53A1.22,1.22,0,0,0,44.19,52a1.15,1.15,0,0,0,1.26,1.1h.63c0,.36,0,.69,0,1,0,2,0,3.1.52,4.06a3,3,0,0,0,2.79,1.29h.24a1.15,1.15,0,0,0,1.21-.66,1,1,0,0,0-.35-1.19,2.05,2.05,0,0,0-.35-.16.87.87,0,0,1-.43-.26c-.37-.38-.28-2.88-.22-4.11h.88l.49,0a1.3,1.3,0,0,0,.95-.4,1,1,0,0,0,.27-.75,1.31,1.31,0,0,0-1.41-1.18H49.55c0-.52,0-1.34,0-2a1.32,1.32,0,0,0-1.31-1.3" transform="translate(0 0)"/><path class="cls-7" d="M28.35,79.4h0c-.65-.05-1.31-.13-2-.23a.36.36,0,0,1-.31-.43.35.35,0,0,1,.42-.31c.63.1,1.28.17,1.91.22a.39.39,0,0,1,.35.41.38.38,0,0,1-.38.34m6.8-.31a.38.38,0,0,1-.07-.75c.63-.11,1.26-.24,1.88-.4a.38.38,0,1,1,.18.73c-.63.16-1.28.3-1.93.41h-.06M19.88,77.27a.4.4,0,0,1-.15,0c-.6-.26-1.2-.55-1.78-.86a.37.37,0,1,1,.35-.66c.57.3,1.15.58,1.73.84a.37.37,0,0,1,.2.49.38.38,0,0,1-.35.22m23.5-1.1a.39.39,0,0,1-.33-.19.37.37,0,0,1,.14-.51c.56-.31,1.12-.65,1.65-1a.38.38,0,0,1,.52.11.38.38,0,0,1-.11.52c-.55.36-1.12.7-1.69,1a.31.31,0,0,1-.18,0M12.57,72.5a.39.39,0,0,1-.26-.1c-.48-.44-1-.91-1.4-1.39a.37.37,0,0,1,0-.53.38.38,0,0,1,.53,0c.43.46.89.92,1.36,1.35a.38.38,0,0,1,0,.53.36.36,0,0,1-.27.12m37.64-1.76a.35.35,0,0,1-.25-.1.38.38,0,0,1,0-.53c.43-.47.85-1,1.24-1.47a.39.39,0,0,1,.53-.07.38.38,0,0,1,.06.53c-.4.52-.83,1-1.27,1.51a.35.35,0,0,1-.28.13m-43-5.12a.39.39,0,0,1-.33-.19c-.31-.58-.61-1.17-.88-1.77a.38.38,0,1,1,.69-.31c.26.58.55,1.16.85,1.72a.38.38,0,0,1-.15.51.39.39,0,0,1-.18,0m47.73-2.24a.32.32,0,0,1-.14,0,.37.37,0,0,1-.2-.49c.25-.59.48-1.19.69-1.79a.38.38,0,0,1,.48-.24.38.38,0,0,1,.23.48c-.21.62-.45,1.24-.71,1.85a.37.37,0,0,1-.35.22m-50.58-6A.38.38,0,0,1,4,57.06c-.1-.65-.19-1.31-.25-2a.37.37,0,0,1,.34-.41.35.35,0,0,1,.41.34c0,.63.14,1.28.24,1.9a.38.38,0,0,1-.31.44H4.34M57,54.9h0a.38.38,0,0,1-.35-.4c0-.63.07-1.28.07-1.92v-.12a.38.38,0,0,1,.75,0v.12c0,.66,0,1.32-.07,2a.38.38,0,0,1-.38.35M4.33,48.64H4.26A.36.36,0,0,1,4,48.2c.1-.64.23-1.29.39-1.93A.36.36,0,0,1,4.8,46a.37.37,0,0,1,.27.45c-.14.63-.27,1.26-.37,1.88a.38.38,0,0,1-.37.32m51.83-2.55a.37.37,0,0,1-.36-.27c-.17-.62-.36-1.24-.57-1.84a.38.38,0,0,1,.71-.25c.22.62.41,1.25.58,1.89a.37.37,0,0,1-.26.46h-.1m-49-5.72a.39.39,0,0,1-.18,0,.38.38,0,0,1-.15-.51c.31-.57.65-1.15,1-1.7a.38.38,0,0,1,.64.4c-.35.54-.68,1.1-1,1.66a.39.39,0,0,1-.33.19m45.41-2.22a.4.4,0,0,1-.32-.17c-.35-.52-.73-1-1.13-1.55a.38.38,0,0,1,.07-.53.37.37,0,0,1,.52.07q.62.78,1.17,1.59a.38.38,0,0,1-.1.52.35.35,0,0,1-.21.07M12.49,33.47a.36.36,0,0,1-.27-.12.38.38,0,0,1,0-.53c.48-.44,1-.88,1.5-1.29a.37.37,0,0,1,.52.06.38.38,0,0,1,0,.53c-.51.4-1,.82-1.46,1.25a.37.37,0,0,1-.26.1M46.55,31.8a.39.39,0,0,1-.23-.07c-.5-.39-1-.76-1.57-1.11a.38.38,0,1,1,.41-.63c.55.36,1.09.74,1.61,1.14a.37.37,0,0,1,.08.52.38.38,0,0,1-.3.15M19.79,28.67a.38.38,0,0,1-.35-.22.39.39,0,0,1,.2-.5c.6-.26,1.22-.51,1.83-.73a.39.39,0,0,1,.48.23.37.37,0,0,1-.23.48c-.59.21-1.19.45-1.78.71a.4.4,0,0,1-.15,0m19-.93-.12,0c-.61-.2-1.23-.38-1.84-.53a.39.39,0,0,1-.28-.46.38.38,0,0,1,.46-.27c.63.16,1.27.34,1.9.55a.38.38,0,0,1,.24.47.38.38,0,0,1-.36.26M28.24,26.51a.38.38,0,0,1,0-.75c.64-.05,1.31-.09,2-.1a.41.41,0,0,1,.38.37.37.37,0,0,1-.37.38c-.64,0-1.29,0-1.92.1h0" transform="translate(0 0)"/></g></svg>